<?xml version="1.0" encoding="utf-8"?>
<!-- Generator: Adobe Illustrator 26.1.0, SVG Export Plug-In . SVG Version: 6.00 Build 0)  -->
<svg version="1.1" id="Capa_1" xmlns="http://www.w3.org/2000/svg" xmlns:xlink="http://www.w3.org/1999/xlink" x="0px" y="0px"
	 viewBox="0 0 439.1 439.1" style="enable-background:new 0 0 439.1 439.1;" xml:space="preserve">
<g>
	<path d="M68.5,268.5h-1.4c-2.6,0-4.8,2-5,4.6l-0.4,5.3c-0.4,5.4,1.4,10.7,5,14.6s8.8,6.2,14.2,6.2h185.9c2.6,0,4.8-2,5-4.6
		l1.3-16.1h9.8c2.6,0,4.8-2,5-4.6l18.7-245.2c0.1-1.4-0.4-2.8-1.3-3.8s-2.3-1.6-3.7-1.6H91.9c-2.6,0-4.8,2-5,4.6L68.5,268.5z
		 M278.2,268.5H78.6l18-235.2h199.7L278.2,268.5z M262.2,289.2H256c-2.6,0-5-1.1-6.8-3c-1.8-1.9-2.6-4.4-2.4-7l0.1-0.7H263
		L262.2,289.2L262.2,289.2z M71.7,279.2l0.1-0.7h1.4h163.6c-0.3,3.8,0.6,7.5,2.3,10.7H80.9c-2.6,0-5-1.1-6.8-3
		C72.3,284.3,71.4,281.8,71.7,279.2z"/>
	<path d="M91.4,261.6h175.8c2.6,0,4.8-2,5-4.6l16.1-211.3c0.1-1.4-0.4-2.8-1.3-3.8c-0.9-1-2.3-1.6-3.7-1.6H107.5c-2.6,0-4.8,2-5,4.6
		L86.4,256.2c-0.1,1.4,0.4,2.8,1.3,3.8S90,261.6,91.4,261.6L91.4,261.6z M262.6,251.6H96.8l15.4-201.3h165.8L262.6,251.6z"/>
	<path d="M32.6,433.7c-0.1,1.4,0.4,2.8,1.3,3.8s2.3,1.6,3.7,1.6l39.7,0c2.6,0,4.8-2,5-4.6L90.1,332H116l7.8,102.5
		c0.2,2.6,2.4,4.6,5,4.6l39.7,0c1.4,0,2.7-0.6,3.7-1.6c0.9-1,1.4-2.4,1.3-3.8L165.7,332h107.6l-7.8,101.7c-0.1,1.4,0.4,2.8,1.3,3.8
		s2.3,1.6,3.7,1.6h39.7c2.6,0,4.8-2,5-4.6l7.8-102.5H349l7.8,102.5c0.2,2.6,2.4,4.6,5,4.6h39.7c1.4,0,2.7-0.6,3.7-1.6
		c0.9-1,1.4-2.4,1.3-3.8L373.7,4.6c-0.2-2.6-2.4-4.6-5-4.6L70.4,0c-2.6,0-4.8,2-5,4.6L32.6,433.7z M396.1,429.1h-6.4L357.8,10h6.4
		L396.1,429.1z M323.8,322l23.8-312h0.1l32,419.1h-13.3l-7.8-102.5c-0.2-2.6-2.4-4.6-5-4.6H323.8z M305.6,429.1h-6.4l32-419.1h6.3
		L305.6,429.1z M149.4,332h6.3l7.4,97.1h-6.3L149.4,332z M126.1,332h13.3l7.4,97.1h-13.3L126.1,332z M72.6,429.1h-6.4l7.4-97.1h6.4
		L72.6,429.1z M43,429.1L75,10h246.3l-32,419.1H276l7.8-101.7c0.1-1.4-0.4-2.8-1.3-3.8s-2.3-1.6-3.7-1.6H69.1c-2.6,0-4.8,2-5,4.6
		l-7.8,102.5H43z"/>
	<path d="M343.8,198.3l8.2,107.1c0.2,2.6,2.4,4.6,5,4.6c0.1,0,0.3,0,0.4,0c2.8-0.2,4.8-2.6,4.6-5.4l-8.2-107.1
		c-0.2-2.8-2.6-4.8-5.4-4.6C345.6,193.1,343.5,195.5,343.8,198.3z"/>
	<path d="M343.8,304.6l-2.3-29.9c-0.2-2.8-2.6-4.8-5.4-4.6c-2.8,0.2-4.8,2.6-4.6,5.4l2.3,29.9c0.2,2.6,2.4,4.6,5,4.6
		c0.1,0,0.3,0,0.4,0C342,309.8,344,307.4,343.8,304.6z"/>
	<path d="M203.6,63.8c0-2.8-2.2-5-5-5h-76.3c-2.8,0-5,2.2-5,5s2.2,5,5,5h76.3C201.3,68.8,203.6,66.5,203.6,63.8z"/>
	<path d="M257.6,240.1c0-2.8-2.2-5-5-5h-50.8c-2.8,0-5,2.2-5,5s2.2,5,5,5h50.8C255.3,245.1,257.6,242.9,257.6,240.1z"/>
	<path d="M171.3,240.1c0,2.8,2.2,5,5,5h11.1c2.8,0,5-2.2,5-5s-2.2-5-5-5h-11.1C173.6,235.1,171.3,237.4,171.3,240.1z"/>
	<path d="M117.3,81.3c0,2.8,2.2,5,5,5h27c2.8,0,5-2.2,5-5s-2.2-5-5-5h-27C119.5,76.3,117.3,78.5,117.3,81.3z"/>
</g>
</svg>
