<?xml version="1.0" encoding="utf-8"?>
<!-- Generator: Adobe Illustrator 26.1.0, SVG Export Plug-In . SVG Version: 6.00 Build 0)  -->
<svg version="1.1" id="Calque_1" xmlns="http://www.w3.org/2000/svg" xmlns:xlink="http://www.w3.org/1999/xlink" x="0px" y="0px"
	 viewBox="0 0 333.8 1024.8" style="enable-background:new 0 0 333.8 1024.8;" xml:space="preserve">
<g transform="translate(0.000000,1280.000000) scale(0.100000,-0.100000)">
	<path d="M-5817.8,12789.2c-47-75-56-133-23-143c35-11,25-49-16-64c-35-13-74-61-74-92c0-12-16-20-58-28c-59-11-102-34-102-52
		c0-6,18-18,40-26c39-16,53-40,28-47c-7-2-39-9-71-16c-46-9-67-20-98-51c-21-21-39-47-39-57c0-20,24-45,53-55c9-4,17-13,17-21
		c0-9,22-177,50-373c27-197,50-361,50-365c0-5,8-8,18-9c14,0,13-2-5-11c-13-6-25-19-29-30c-7-24,21-68,44-68c10,0,27-7,39-15
		c28-20,134-31,159-17c18,10,17,11-9,21c-16,6-47,11-70,11c-23,1-55,6-70,13c-26,11-27,13-12,34c13,19,21,21,77,16c60-5,98-23,98-47
		c0-6,7-23,14-38c13-24,13-30,0-42c-8-8-14-28-14-44c0-17-6-32-15-36c-11-4-15-20-15-56c0-30-4-50-11-50c-6,0-9-9-6-20
		c8-31-15-24-53,15c-44,45-77,52-129,26c-43-23-74-69-69-104c4-31,32-33,46-2s47,33,100,6c56-29,77-57,77-105c0-37,2-41,28-44
		c27-3,27-4,27-77c0-58-3-74-16-79c-11-4-15-2-11,8c3,7-2,44-12,82c-15,61-21,71-51,87c-52,27-178,20-245-13c-65-31-141-107-153-153
		c-6-20-20-50-32-66c-16-23-19-39-15-64c9-46-20-72-70-63c-35,7-36,6-33-21c2-22,9-29,31-31c15-2,27-4,27-5c0-17-67-158-83-176
		c-29-32-90-58-154-67c-39-5-52-11-56-26c-13-47-5-49,130-35c17,2,50,16,72,30c23,15,41,25,41,22c0-2-11-28-23-57
		c-46-103-100-144-212-161c-110-16-107-17-132,35c-25,54-38,64-58,48c-22-18-35-3-35,40c0,36,28,80,51,80c4,0,16,3,26,7
		c15,6,16,4,5-9c-10-13-10-19,3-32c23-23,42-20,71,9c24,24,25,28,11,48c-11,17-26,23-64,25c-42,2-55-1-82-24c-39-33-61-73-61-113
		v-30l-30,17c-32,18-41,56-15,66c8,3,15,10,15,16c0,5-7,10-15,10c-18,0-20,17-4,22c9,3,8,10-1,25c-12,18-10,25,11,51
		c13,17,32,31,42,31c24,1,22,37-3,44c-24,6-25,25-5,74c9,21,19,64,22,96c4,42,13,68,30,88c28,33,45,36,68,13c20-21,33-9,18,16
		c-10,14-9,21,2,30c19,16,19,29-2,52c-16,18-15,35,16,301c19,155,40,296,48,314c14,30,14,34-8,62c-23,28-49,42-111,55
		c-35,8-36,29-3,44c14,6,25,15,25,20c0,12-40,29-84,37c-25,5-36,13-36,24c0,21-33,57-60,66c-23,7-27,40-5,49c8,3,15,14,15,25
		c0,27-39,91-55,91s-55-64-55-91c0-11,7-22,15-25c16-7,21-44,6-44c-18,0-71-52-71-70c0-13-10-20-36-25c-49-9-85-26-81-39
		c2-6,16-17,30-24c46-22,36-33-45-47c-37-6-98-57-98-81c0-6,12-22,28-35c26-24,28-34,66-307c24-177,43-282,50-282c6,0,3-5-6-11
		c-22-12-23-42-3-59c10-8,13-21,8-39c-6-26-6-26,16-7c17,15,26,17,44,9c30-14,57-70,57-117c0-20,9-59,20-88c25-66,25-67-5-78
		s-32-28-6-38c27-10,78-75,63-80c-14-4-16-32-2-32c19,0,10-18-11-23c-23-6-17-27,7-27c10,0,14-8,12-22c-2-16-14-24-48-32
		c-38-9-45-15-45-36c0-35,46-60,76-42c19,12,26,10,63-17c90-68,171-94,296-95c62,0,84,5,127,27c61,31,63,32,63,12c0-40,72,7,95,61
		c13,31,17,34,35,24c31-16,38-6,45,65c6,53,10,63,21,54c27-22,36,1,29,70c-5,54-4,64,6,54c7-7,19-13,27-13c10,0,12,14,6,70
		c-6,69-6,70,16,68c14-2,27,5,34,17c6,11,12,22,14,24c1,3,19-12,40-31c20-20,51-40,67-44c17-4,36-16,43-26c9-13,26-18,58-18
		c44,0,44,0,44-34c0-55-42-92-97-87c-21,2-15,29,8,36c14,5,19,14,17,28c-3,19-11,22-50,25c-41,3-49,0-63-22c-14-21-15-29-3-53
		c7-15,30-36,50-46c35-17,41-17,91-3c102,30,133,96,87,186c-11,22-18,45-15,50s-13,19-36,30c-38,20-40,22-23,35c17,12,14,14-26,25
		c-76,19-78,21-28,36c52,16,66,40,54,89c-5,19-13,25-34,25c-39,0-59-15-44-33c9-10,8-18-2-33c-14-18-15-18-21-1c-5,11-18,17-37,17
		c-38,0-88,48-88,85c0,83,71,136,184,139c84,1,131-26,130-75c0-19,5-37,10-41c7-5,7-8-1-8c-10,0-13-36-13-145c0-142,0-145,23-150
		c19-5,22-11,19-45c-3-29,1-43,17-59c15-15,21-34,21-66c0-25-4-45-9-45c-6,0-11-17-13-37c-2-32-7-39-28-41c-14-2-29-8-34-12
		c-14-14,13-40,41-40c22,0,24-2,13-15c-10-12-10-18,0-30c17-20,1-64-60-160c-28-44-50-85-50-91c0-7,16-18,35-25c34-13,35-15,35-64
		c-1-45-4-52-32-70c-43-27-56-50-42-72c6-10,25-27,42-38c29-19,31-24,32-77c0-45-3-58-15-58c-8,0-15-9-15-20s7-23,15-26
		c13-5,15-159,15-1294v-1289l-27-3c-22-2-29-9-31-30c-3-23,1-27,25-30l28-3l3-212l2-213h-30c-27,0-30-3-30-30s3-30,30-30h31l-3-107
		l-3-108l-27-3c-22-3-28-9-28-27s6-24,28-27l27-3l3-310c1-170,0-325-3-343c-5-27-14-36-50-52c-24-10-51-30-61-45c-15-24-15-27,0-44
		c12-13,16-37,16-95c0-65-4-85-30-136c-43-86-38-140,14-140c19,0,19-1,4-17c-16-15-15-17,8-35c21-17,24-28,24-83c0-74-14-95-64-95
		c-39,0-88-34-80-55c3-8,28-30,55-50c61-44,62-64,7-90c-53-25-57-43-23-118c34-77,34-161,0-254c-27-76-20-101,18-65
		c13,12,27,19,30,15c15-14,5-35-33-72c-34-32-40-44-40-79c0-37-3-41-27-44c-44-5-41-38,7-76c54-44,53-67-8-94l-47-22l33-5l33-6
		l-51-53l-50-53l24-47c14-26,41-60,60-75c27-21,36-35,36-57c0-17-3-30-6-30s-25,12-50,26c-44,26-44,26-76,7c-42-24-88-111-88-165
		c0-29,6-45,22-59c31-25,47-24,58,6c12,32,38,32,50,0c7-19,5-38-10-75c-11-27-16-51-12-53c16-10,54,15,75,50l22,38l3-29
		c8-71-32-182-113-313l-26-43h500c276,0,501,2,501,5s-11,22-24,43c-74,117-107,212-99,281l6,51l17-33c19-35,60-61,73-48
		c5,5,2,22-7,39c-21,40-20,86,0,103c14,11,18,10,30-6c8-10,14-22,14-27c0-14,21-9,51,13c38,27,38,67-1,146c-22,43-40,65-63,76
		c-30,15-34,15-74-9c-23-13-44-24-47-24s-6,13-6,29c0,22,10,37,40,61c23,18,51,52,63,76l23,44l-50,53c-48,52-49,52-22,55
		c38,5,32,19-14,33c-55,17-55,49,0,87c21,15,42,33,45,41c8,20-14,41-42,41c-22,0-25,3-20,27c7,35-17,87-49,108c-15,9-24,25-24,40
		c0,30,11,32,28,5c12-20,37-27,46-12c3,5-6,39-20,76c-34,93-32,158,7,249c35,84,31,108-25,127c-44,14-48,41-10,67c61,42,85,68,79,85
		c-7,18-46,36-90,40c-39,4-57,39-52,101c3,32,12,56,27,72c19,20,21,27,10,40c-10,13-9,15,9,15c11,0,28,11,36,24c15,23,15,29-17,98
		c-28,62-33,84-33,149c0,62,4,81,19,98c19,21,19,22,0,48c-11,14-37,32-58,40c-70,24-66,1-66,374v339h25c20,0,25,5,25,25s-5,25-25,25
		h-25v110v110h25c21,0,25,5,25,30s-4,30-25,30h-25v215v215h25c21,0,25,5,25,30s-4,30-25,30h-25l-2,1288c-3,1276-3,1287,17,1305
		s20,18-2,33c-19,13-23,26-23,66c0,45,3,50,35,69c59,35,59,83,0,115c-33,17-35,22-35,70c0,49,1,51,33,60c48,14,47,44-4,104
		c-49,58-83,144-67,173c5,10,7,25,4,32c-3,9,4,15,22,17c40,4,37,41-3,48c-26,4-30,10-33,43c-2,20-7,37-13,37c-5,0-9,21-9,48
		c0,36,5,50,20,60c15,9,20,23,20,57c0,25,4,45,9,45s17,7,25,16c23,23,23,255,0,278c-8,9-12,16-7,16c4,0,8,17,8,37c0,35,4,40,45,61
		c37,19,54,22,99,17c67-8,99-20,128-47c28-26,47-81,39-114c-7-28-60-64-93-64c-12,0-26-7-31-16c-8-14-11-14-18-3c-5,8-9,25-9,39
		c0,22-4,25-35,25c-34,0-35-1-38-42c-3-45,11-59,73-73c28-6,27-7-30-24c-54-16-58-19-41-31c17-13,15-15-20-32c-22-10-39-25-39-33
		s-5-24-11-35c-59-105-28-172,93-204c72-19,133,19,133,82c0,35-22,49-72,45c-35-2-44-7-46-25c-2-14,3-23,17-28c23-7,28-31,9-38
		c-20-6-72,11-85,30c-7,9-13,34-13,55v38h44c32,0,49,5,58,18c7,10,27,22,43,26c17,4,47,23,67,43l37,36l12-27c10-22,17-26,37-21l23,6
		l-7-71c-5-57-4-70,8-70c8,0,19,5,24,10c7,7,9-9,6-51c-5-65,6-91,31-70c12,9,15,0,20-54c2-37,8-69,11-72c3-4,17-1,30,5
		c23,10,26,8,45-32c21-43,60-74,80-62c5,4,7,14,4,22c-4,11,13,6,58-18c59-30,70-33,149-31c108,2,194,29,265,82c54,41,75,50,75,31
		c0-5,10-10,23-10c23,0,67,37,67,57c0,16-47,33-90,33c-35,0-40,3-40,24c0,13,7,26,15,30c19,7,19,26,0,26c-18,0-20,17-4,22
		c9,3,8,10-1,25c-12,18-10,25,11,51c13,17,32,31,42,31c21,1,24,41,2,41c-25,0-28,25-11,77c8,26,18,72,22,101c4,35,15,64,31,83
		c28,33,44,36,68,13c20-20,33-10,19,14c-8,13-7,23,4,40c13,20,13,24-4,43s-17,28,14,302c21,179,39,294,49,314c15,30,14,33-8,62
		c-23,28-49,41-111,55c-36,8-36,29-1,45l28,13l-22,18c-12,9-40,20-62,24c-31,5-41,11-41,25c0,19-52,71-71,71c-15,0-10,37,6,44
		c8,3,15,14,15,25c0,27-39,91-55,91s-55-64-55-91c0-11,7-22,15-25c22-9,18-42-5-49c-27-9-60-44-60-65c0-11-17-20-57-30
		c-65-17-75-37-30-58c40-19,33-29-28-42c-40-8-63-20-85-43c-37-39-37-50-4-76c25-20,28-32,66-303c22-156,44-286,50-289c5-4,3-9-6-12
		c-20-8-21-56-1-63c11-4,12-11,5-24c-13-25,0-33,22-13c38,35,98-32,98-109c0-19,9-61,20-93c21-62,19-75-11-75c-24,0-25-28,0-38
		c10-4,31-22,46-40c27-32,27-33,9-47c-18-13-18-14-1-20c23-9,22-21-4-28c-23-6-17-27,7-27c19,0,19-54-1-70c-13-11-15-8-15,19
		c0,41-21,82-60,115c-26,21-42,26-86,26c-49,0-56-3-66-25c-10-23-8-29,14-52c21-20,32-24,53-19c22,6,26,11,22,32s-1,24,17,18
		c40-12,66-45,66-85s-15-58-33-40c-21,21-35,11-61-45c-25-52-29-56-54-50c-15,4-54,10-88,15c-70,10-108,28-145,68
		c-27,28-60,88-74,132c-7,23-6,23,38-9c32-23,51-30,66-25c12,4,28,1,36-5s31-10,52-8c34,4,38,7,38,33c0,28-3,30-62,42
		c-118,23-167,64-192,158c-6,22-18,50-26,63c-15,21-15,22,4,22c35,0,51,12,51,37c0,23-2,24-39,18c-49-8-75,14-68,59c3,22-4,48-24,85
		c-16,30-29,60-29,66c0,26-91,107-153,135c-75,36-179,42-237,12c-31-15-37-25-52-82c-10-36-15-73-12-84c4-12,2-16-5-12
		c-6,4-11,38-11,81c0,68,2,74,21,77c32,5,47,33,31,59c-12,19-10,25,15,51c60,64,123,76,160,31c22-27,24-27,37-9
		c35,44-45,136-118,136c-15,0-44-17-73-42c-45-39-48-40-51-20c-2,12-9,22-16,22c-8,0-12,18-11,53c0,36-4,51-12,49c-8-1-13,10-13,31
		c0,20-8,39-21,50c-20,18-20,25,1,82c12,33,31,42,97,48c57,5,63,3,77-18c15-22,14-24-16-34c-17-6-48-11-69-11s-50-5-66-11
		c-22-8-24-12-13-19c46-29,212,15,240,63c13,24,13,28-10,52l-24,26l46,384c33,274,51,391,62,407c23,32,20,42-20,84
		c-28,30-49,41-102,55c-77,19-90,39-43,64c58,29,36,54-71,76c-37,8-48,15-48,29c0,26-57,89-86,96c-30,8-32,44-4,62c24,15,28,70,5,78
		c-8,4-15,14-15,24C-5750.8,12788.2-5799.8,12816.2-5817.8,12789.2z M-5827.8,12019.2c4-73,8-234,9-358l3-225l-105-6
		c-58-4-106-6-107-5c-1,0-21,164-45,364l-44,362h142h141L-5827.8,12019.2z M-5425.8,12119.2c-3-18-23-181-45-362s-41-331-43-332
		c-1-1-53,1-116,5l-114,6l1,210c1,116,5,276,8,358l7,147h154h154L-5425.8,12119.2z M-7126.8,11259.2c3-7,7-131,10-276l6-263l-82,3
		l-83,3l-27,220c-14,121-29,244-33,273l-6,52h106C-7159.8,11271.2-7128.8,11267.2-7126.8,11259.2z M-6846.8,11009.2
		c-18-145-33-269-33-275c-1-10-26-13-93-13h-91l6,188c4,103,7,226,7,275v87h118h118L-6846.8,11009.2z M-4527.8,11264.2
		c3-5,6-127,8-273l4-265l-80-3l-81-3l-28,233c-15,128-30,252-33,276l-6,42h106C-4579.8,11271.2-4529.8,11268.2-4527.8,11264.2z
		 M-4220.8,11244.2c0-16-14-134-30-263s-30-241-30-247c0-10-25-13-90-13h-90v88c0,48,3,171,7,275l6,187h114h113V11244.2z
		 M-7163.8,10651.2c27,0,34-5,44-35c7-19,19-35,26-35c16,0,19-205,3-215c-13-8-49,52-56,95c-5,34-15,68-29,103c-6,14-2,17,24,17
		c17,0,31,4,31,9c0,11-36,21-80,21c-19,0-41,4-49,9c-22,14,6,44,33,37C-7204.8,10654.2-7181.8,10651.2-7163.8,10651.2z
		 M-6889.8,10645.2c16-20-2-34-46-34c-40,0-75-10-75-21c0-5,16-9,35-9c32,0,35-2,26-18c-6-11-17-50-26-88c-17-73-45-122-64-110
		c-7,5-11,44-11,111c0,82,3,104,15,109c8,3,15,14,15,24c0,26,18,40,60,45c19,2,40,5,46,5
		C-6908.8,10660.2-6897.8,10654.2-6889.8,10645.2z M-4527.8,10629.2c9-11,17-26,17-34s7-14,15-14c13,0,15-16,13-107
		c-2-61-7-108-13-107c-20,2-45,51-56,109c-6,33-17,70-25,83c-14,21-13,22,21,22c19,0,35,4,35,9c0,11-36,21-80,21c-48,0-68,14-51,34
		C-4633.8,10667.2-4551.8,10656.2-4527.8,10629.2z M-4289.8,10645.2c17-21-3-34-53-34c-20,0-43-3-52-6c-28-11-17-24,19-24
		c35,0,35,0,21-27c-7-16-17-48-21-73c-9-56-42-123-58-117c-8,2-13,38-15,107c-2,85,0,105,13,112c8,5,15,17,15,27c0,25,19,39,60,44
		c19,2,40,5,46,5C-4308.8,10660.2-4297.8,10654.2-4289.8,10645.2z"/>
	<path d="M-2435.8,12792.2c-95-23-135-101-84-165c33-43,22-66-51-106c-36-20-85-49-110-66s-59-36-77-43l-32-13l16-33
		c15-31,15-37,0-77c-10-24-17-47-17-51s27-7,59-7h59l16-47c9-26,16-47,16-48s-24-5-52-8c-131-16-314-80-425-149
		c-60-38-133-108-133-128c0-5,9-33,20-62l20-53l-25-19c-18-13-24-24-20-38c10-29-13-48-56-48c-21,0-40-4-43-9c-6-9,24-16,130-26
		l60-7l105-476c86-388,103-478,91-482c-12-5-11-8,2-19c22-19,20-30-11-64c-16-17-23-31-17-34c42-15,44-27,14-72c-35-52-38-97-11-156
		c34-72,74-100,196-135c61-18,123-39,138-47c26-13,28-18,23-48c-7-36-7-36,62-50c27-6,33-11,30-28c-3-20-10-22-85-25l-82-3l10-26
		c7-18,6-30-1-37c-19-19-10-44,24-64c35-21,48-56,39-103c-3-15,0-30,6-33c8-5,8-13,1-27c-8-14-5-31,11-68c16-38,18-54,10-69
		c-15-27-14-62,1-62c6,0,4-6-6-13c-10-8-15-19-11-29c7-18,42-34,52-24c3,3,23-10,45-29l38-35v-1747v-1747l-29-31
		c-71-73-106-191-98-325c6-100,32-178,83-244l35-46l-36-42c-20-24-43-64-53-90l-17-48h-111c-97,0-115-3-138-21c-14-11-26-30-26-43
		c0-27,27-66,46-66c11,0,14-19,14-98c0-95-1-99-25-110c-45-21-45-93,1-114c13-6,24-19,24-28s-20-454-45-990s-45-986-45-1002v-28h535
		h535v33c0,17-25,475-55,1017s-55,1002-55,1023c0,37,0,37,40,37c22,0,40,5,40,10c0,17-39,50-60,50c-19,0-20,7-20,130v130h40
		c48,0,53,18,14,49c-23,18-41,21-139,21h-113l-7,28c-8,33-46,99-75,130l-21,22l35,46c64,83,81,143,80,279c0,141-19,204-84,278
		l-40,45v1746v1745l37,35l38,34l3,228l3,228l35,38c18,21,34,43,34,48c0,6-33,10-80,10h-80v29c0,28,2,30,48,33c44,3,47,5,44,28
		c-2,14-5,31-5,38c-1,7,34,25,88,43c132,44,230,115,250,179c14,45-5,113-41,146l-34,33l36,11c45,15,52,35,24,65l-23,24l133,428
		c73,235,144,463,157,505l23,77l58,6c98,10,123,16,117,26c-4,5-21,9-38,9c-54,0-73,10-96,50c-22,39-28,90-11,90c16,0,32,40,26,65
		c-9,37-140,133-256,187c-58,28-123,59-145,69c-22,11-71,28-110,37c-58,14-71,21-73,39c-5,31,49,63,106,63c48,0,50,5,22,60
		c-25,49-25,62,0,85c26,23,20,30-41,50c-27,9-78,40-112,67c-34,28-72,55-84,61c-30,13-29,39,2,73c34,37,33,85-2,124
		c-23,25-40,32-98,40C-2384.8,12802.2-2393.8,12802.2-2435.8,12792.2z M-2386.8,12755.2c3-9,6-35,6-59c0-45-12-55-69-55
		c-49,0-77,53-48,91C-2467.8,12770.2-2397.8,12785.2-2386.8,12755.2z M-2238.8,12741.2c24-29,23-59-3-86c-18-19-25-21-52-12
		c-42,15-47,23-47,82v49l42-6C-2271.8,12764.2-2249.8,12754.2-2238.8,12741.2z M-2370.8,11581.2c310,0,605,3,657,6c70,5,93,4,93-5
		c0-10-206-681-282-920l-10-34l-102,6c-55,4-101,7-102,7c0,0,2,38,4,83c3,52,0,92-7,105c-6,12-54,46-105,77c-95,56-111,73-101,106
		c5,16,1,19-25,19c-27,0-30,2-20,19c5,11,10,75,10,142c0,140-8,159-68,159c-65,0-72-16-72-165c0-88,4-135,12-143c9-9,7-12-10-12
		c-18,0-22-6-22-35c0-37-9-47-96-95c-33-19-63-46-83-76c-28-42-31-55-31-121v-73h-90c-49,0-90,2-90,3c0,4-193,882-206,936l-5,24
		l94-7C-2975.8,11584.2-2680.8,11581.2-2370.8,11581.2z M-2100.8,10457.2c0-8,8-21,18-28s21-21,25-30c9-24,72-25,85-2
		c14,26,25-1,17-42c-10-56-68-106-153-133c-40-12-77-21-82-19s5,25,22,51c44,68,49,132,14,174c-14,17-26,34-26,37s18,6,40,6
		C-2112.8,10471.2-2100.8,10467.2-2100.8,10457.2z M-2665.8,10451.2c3-6-3-22-14-36c-27-35-28-116-2-167l19-38l-36,7
		c-113,20-182,77-182,150v44h48c42,0,51,4,62,25s21,25,56,25C-2690.8,10461.2-2668.8,10456.2-2665.8,10451.2z M-2450.8,10326.2
		c0-151-2-154-61-105c-27,21-40,42-48,77c-7,26-14,55-16,63c-3,10,5,19,23,26c21,8,31,20,35,43c6,26,11,31,37,31h30V10326.2z
		 M-2326.8,10446.2c-4-9,0-15,10-15c9,0,24-8,34-18c16-16,17-23,6-64c-18-73-81-158-115-158c-5,0-9,61-9,135v135h40
		C-2329.8,10461.2-2322.8,10458.2-2326.8,10446.2z"/>
	<path d="M832.2,12784.2c-45-15-57-33-24-33c36,0,32-19-7-44c-53-33-59-61-21-99c29-29,29-30,12-50c-24-26-84-52-155-67l-58-11
		l14-32c8-19,20-31,29-31c10,1,17-4,17-12s-9-14-20-14s-19-3-19-7c1-5,1-13,0-20c0-6-88-59-195-118c-167-91-198-105-215-95
		c-12,6-21,14-21,19s-18,20-39,35c-34,24-42,26-62,15c-22-11-22-12-4-19c11-4,35-28,53-53c30-42,31-47,15-56c-16-8-15-10,8-16
		c24-6,33-29,132-328c81-245,103-324,95-335c-9-10-6-14,10-19c12-3,22-12,22-19c0-8,7-17,15-20c8-4,15-15,15-26c0-38,60-83,150-112
		c130-42,152-57,165-108c6-23,4-27-21-30c-15-2-32-11-38-21c-9-15-6-22,17-41l27-22l-25-24c-14-13-25-27-25-31c0-17,34-40,51-36
		c18,5,19-3,19-103c0-108,0-109-27-122c-14-7-29-20-33-28s-14-29-22-47c-18-34-15-43,14-43c10,0,18-7,18-15c0-9-10-15-26-15
		c-21,0-25-3-19-17c13-32,24-67,30-96c4-17,17-35,35-45l30-17v-169c0-130-3-167-12-163c-20,7-58-11-58-28c0-8-8-15-19-15
		s-21-9-25-22c-10-40-7-48,22-48c24,0,28-4,27-27c0-24,4-28,33-31l32-3v-359c0-250-4-397-15-487c-20-177-35-480-35-715
		c0-108-7-331-16-495c-21-399-13-517,42-590c28-37,29-43,10-43c-7,0-25-9-40-21c-30-23-33-64-16-173c5-33,14-109,19-168
		c6-59,19-130,31-160c25-67,26-115,3-122c-10-3-23-17-30-31c-9-21-9-25,4-25c11,0,8-6-8-19c-27-22-20-37,21-44c24-4,23-4-4-6
		c-23-1-27-4-20-18c13-28,10-67-19-253c-37-246-60-439-53-463c3-12,1-26-3-31c-5-6-11-26-15-44c-5-31-3-35,23-45l29-11l-31-20
		c-16-12-39-33-50-47c-18-25-18-28-3-57c18-35,59-70,93-78c32-9,29-21-10-33c-53-18-115-69-144-119l-28-47v-330c-1-273-4-346-18-419
		c-44-224-127-390-232-464l-53-37l-46-330c-25-181-46-334-46-340c0-5,16-21,36-34c70-48,104-147,76-222c-16-42-62-89-117-120l-53-30
		l-11-82c-7-45-15-99-18-119c-5-36-4-37,33-47c97-25,313-35,769-35s672,10,769,35c37,10,38,11,33,47c-3,20-11,74-18,120
		c-10,70-15,85-33,92c-40,15-106,70-132,110c-51,77-24,194,59,251c17,12,34,24,35,25c2,1-18,155-44,342l-48,339l-33,18
		c-189,102-286,489-267,1061c7,213,2,257-38,301c-11,12-33,27-49,33c-38,16-37,23,6,38c43,16,85,65,85,101c0,27-33,67-74,88
		c-17,9-16,11,8,17c23,6,26,12,26,46c0,21-5,42-10,45c-6,3-8,16-5,28c6,24-19,237-61,520c-18,121-22,172-14,186c15,28,13,31-17,32
		c-27,2-27,2-3,6c40,7,48,22,22,43c-19,16-20,19-6,22c14,2,10,10-15,37c-28,30-32,40-28,75c2,23,12,61,21,85c10,25,21,97,27,160
		c5,64,14,138,19,164c18,87,13,133-16,156c-15,12-33,21-40,21c-19,0-18,3,11,46c54,79,61,182,41,569c-9,165-16,383-16,485
		c0,233-16,566-35,733c-11,91-15,236-15,490v362l202-3c112-2,207-7,212-12c6-6,1-19-13-34c-44-47-44-135,0-182l22-24l-21-23
		c-46-49-46-132-2-172c24-22,26-41,4-53c-8-4-21-27-29-49c-16-45-6-101,20-123c23-19,18-27-20-34c-119-23-224-125-225-221
		c-1-49,91-726,106-781c17-62,69-119,140-154c46-23,61-25,254-28l205-3l82-35c120-51,235-78,303-71c69,8,179,41,245,75
		c48,25,57,26,280,32c257,6,285,13,358,87c53,52,65,87,86,244c10,79,33,254,51,389c39,292,38,303-43,385c-41,40-65,55-115,70
		c-61,19-72,27-51,41c6,3,17,22,25,41c18,41,10,93-17,122c-21,22-25,56-8,67c6,3,17,22,25,41c18,41,10,93-17,122c-24,26-24,35,3,71
		c14,20,21,44,21,75s-7,55-21,75c-43,58-38,60,133,60c142,0,157,2,175,20c26,26,25,36-5,65c-23,24-28,25-174,25c-147,0-150,0-153,22
		c-5,34-38,37-38,4v-26h-775h-775v25c0,32-27,34-32,3c-3-23-4-23-198-26c-153-2-192,0-182,10c20,20,14,48-13,58l-25,10v160v161
		l29,25c18,15,33,41,40,67c5,23,13,52,16,65c6,18,3,22-13,22c-11,0-22,7-26,15c-3,10,1,15,14,15c23,0,35,17,22,33c-5,7-12,24-16,39
		c-4,17-18,34-36,43l-30,16v103c0,101,0,103,26,115c21,9,25,17,21,36c-3,21,0,25,19,25c20,0,24,5,24,31c0,22-5,32-20,36
		c-11,3-20,11-20,18c0,14-22,25-50,25c-27,0-14,34,25,69c24,21,51,32,100,40c105,19,171,61,190,122c4,10,13,19,21,19s14,9,14,19
		c0,12,9,21,25,25c27,7,33,21,11,29c-10,4,18,83,112,316c68,171,129,311,136,311c6,0,18,5,26,10c11,8,12,12,3,18
		c-15,10,37,93,64,103c17,7,17,7,0,14c-13,5-34-3-71-29c-29-20-60-36-70-36c-32,0-107,51-102,69c22,72,22,71-27,71c-30,0-49-5-54-15
		c-7-12-25-5-95,37c-54,32-83,55-76,59c9,6,4,16-15,33c-16,14-32,26-38,26c-11,0-11,11,0,29c8,12,13,12,24,3c12-10,16-9,20,8
		c6,23-15,37-103,65c-30,10-70,31-87,48l-33,31l31,25c24,21,30,33,27,56c-2,18-11,34-24,40c-52,26-70,55-34,55c30,0,24,13-16,33
		C892.2,12804.2,887.2,12804.2,832.2,12784.2z M1257.2,12055.2c17-3,32-8,32-12s-42-140-94-302l-93-295l-184-3l-185-2l-23,257
		c-12,142-25,284-28,315l-6,58l274-6C1101.2,12062.2,1239.2,12058.2,1257.2,12055.2z M592.2,12024.2c15-81,79-574,75-578
		c-6-6-238-28-242-23c-10,11-181,604-175,606c11,5,199,19,270,21C585.2,12051.2,587.2,12050.2,592.2,12024.2z M1460.2,12035.2
		c30-9,57-19,61-22c3-4-48-137-116-297l-122-290l-34,3c-19,1-38,6-43,11s132,470,178,599
		C1390.2,12054.2,1394.2,12054.2,1460.2,12035.2z M1033.2,11306.2c-4-8-8-15-10-15s-4,7-4,15s4,15,10,15
		C1034.2,11321.2,1036.2,11314.2,1033.2,11306.2z M1179.2,11309.2c0-21-13-34-47-52c-37-19-43-9-13,19c11,10,20,24,20,32
		c0,7,9,13,20,13S1179.2,11315.2,1179.2,11309.2z M726.2,11266.2c12-25,18-45,13-45c-14,0-71,71-65,81
		C687.2,11322.2,705.2,11309.2,726.2,11266.2z M809.2,11301.2c0-5-4-10-10-10c-5,0-10,5-10,10c0,6,5,10,10,10
		C805.2,11311.2,809.2,11307.2,809.2,11301.2z M929.2,11292.2c0-6-4-13-10-16c-5-3-10,1-10,9c0,9,5,16,10,16
		C925.2,11301.2,929.2,11297.2,929.2,11292.2z M2949.2,9825.2c0-9-11-29-25-46c-18-22-25-41-25-73s7-51,25-73c30-36,31-40,4-69
		c-14-14-24-40-26-70c-4-40,0-55,21-86c31-46,31-45,5-73c-29-31-36-101-15-142c9-18,21-32,26-32c6,0,10-4,10-10c0-5-21-10-46-10
		c-40,0-53,5-90,39c-51,47-152,100-249,130c-337,105-829,39-994-133c-33-34-38-36-103-36c-39,0-68,4-68,10s4,10,10,10
		c17,0,40,57,40,99c0,28-8,48-25,69c-30,36-31,40-3,69c14,16,23,40,26,76c4,46,1,57-22,84c-29,35-32,48-12,60c21,13,36,49,36,88
		s-15,75-36,88c-8,4-14,17-14,27c0,20,13,20,775,20C2879.2,9841.2,2949.2,9840.2,2949.2,9825.2z M1407.2,9713.2c3-29,1-32-22-32
		c-22,0-26,5-26,28c0,33,8,44,30,40C1398.2,9747.2,1405.2,9733.2,1407.2,9713.2z M2987.2,9713.2c3-29,1-32-22-32c-19,0-26,5-26,19
		C2939.2,9758.2,2982.2,9770.2,2987.2,9713.2z M1409.2,9480.2c0-22-5-26-25-26s-25,4-25,26c0,21,5,26,25,26
		S1409.2,9501.2,1409.2,9480.2z M2989.2,9480.2c0-22-5-26-25-26s-25,4-25,26c0,21,5,26,25,26S2989.2,9501.2,2989.2,9480.2z
		 M1409.2,9250.2c0-22-4-27-25-25c-20,1-25,6-25,26s5,25,25,25S1409.2,9271.2,1409.2,9250.2z M2464.2,9251.2c122-27,231-80,291-141
		l48-49h96c83,0,103-3,148-26c63-31,96-79,94-138c-1-57-89-702-102-748c-13-46-67-92-126-107c-24-6-132-11-242-11h-199l-87-40
		c-47-23-119-48-159-57c-69-15-76-15-153,5c-45,11-115,36-156,56l-76,36h-187c-107,0-206,5-232,11c-51,13-118,71-127,109
		c-3,14-28,191-56,395l-50,370l23,45c17,36,33,51,76,73c50,25,64,27,173,27h119l48,48c75,78,220,136,403,162
		C2128.2,9285.2,2360.2,9274.2,2464.2,9251.2z M2989.2,9251.2c0-20-5-25-25-26c-21-2-25,3-25,25c0,21,5,26,25,26
		S2989.2,9271.2,2989.2,9251.2z"/>
	<path d="M2062.2,9190.2c-189-22-307-70-380-154l-47-55h-128c-133,0-179-10-207-44c-16-19-17-5,53-524c29-215,36-246,56-267l23-25
		h215h215l51-29c76-43,191-81,245-81c56,0,128,23,228,74l73,36h221h221l29,29c18,19,29,40,29,57c0,15,21,179,46,363
		c35,259,43,340,35,358c-18,39-68,53-189,53h-108l-35,48c-63,84-205,141-399,162C2201.2,9202.2,2164.2,9202.2,2062.2,9190.2z"/>
</g>
</svg>
